<svg version="1.2" xmlns="http://www.w3.org/2000/svg" viewBox="0 0 629 522" width="629" height="522">
	<defs>
		<clipPath clipPathUnits="userSpaceOnUse" id="cp1">
			<path d="m347.85 520.12c-165.36 10.26-308.34-40.48-322.81-142.59-14.48-102.12 107.92-194.56 270.45-226.71 82.95-16.42 267.75 16.77 322.81 142.59 4.79 10.96 15.99 54.54 7.23 82.44-21.69 69.11-112.55 134.03-277.68 144.27z"/>
		</clipPath>
		<clipPath clipPathUnits="userSpaceOnUse" id="cp2">
			<path d="m286.67 290.35c-223.66-31.84-296.21-23.19-285.67-110.85 7.98-66.4 9.29-87.61 12.49-88.54 3.14-0.91 8.12 17.89 21.32 21.71 89.34 25.82 420.45 84.78 453.84 58.93 117.14-90.66 122.38-152.87 122.34-83.65-0.04 64.71 8.16 59.46-18.99 91.55-14.55 17.2-42.25 54.59-64.39 79.94-30.89 35.37-72.3 54.92-240.94 30.91z"/>
		</clipPath>
		<clipPath clipPathUnits="userSpaceOnUse" id="cp3">
			<path d="m302.84 87.41c-69.3-3.41-124.63-20.29-123.77-37.76 0.86-17.47 57.58-28.84 126.88-25.43 69.31 3.41 124.63 20.29 123.77 37.76-0.86 17.47-57.57 28.84-126.88 25.43z"/>
		</clipPath>
	</defs>
	<style>
		.s0 { fill: #fff9ee } 
		.s1 { opacity: .1;fill: #000000 } 
		.s2 { fill: none;stroke: #2d3130;stroke-linecap: square;stroke-linejoin: round;stroke-width: 10 } 
		.s3 { fill: none;stroke: #2d3130;stroke-linecap: round;stroke-linejoin: round;stroke-width: 9 } 
		.s4 { fill: #2d3130 } 
		.s5 { fill: #f4b251 } 
		.s6 { opacity: .25;fill: #ffffff } 
		.s7 { fill: #ffce73 } 
		.s8 { fill: #fcb32a } 
		.s9 { fill: #ffa600 } 
	</style>
	<g id="Clip-Path: blobman" clip-path="url(#cp1)">
		<g id="blobman">
			<path fill-rule="evenodd" class="s0" d="m347.85 520.12c-165.36 10.26-308.34-40.48-322.81-142.59-14.48-102.12 107.92-194.56 270.45-226.71 82.95-16.42 267.75 16.77 322.81 142.59 4.79 10.96 15.99 54.54 7.23 82.44-21.69 69.11-112.55 134.03-277.68 144.27z"/>
			<path id="blob shadow" fill-rule="evenodd" class="s1" d="m261.45 540.56c-316.28 6.51-173.4-59.49-156.18-54.44 121.1 35.56 225.14 40.36 338.21-12.47 17.59-8.22 205.41-83.23 74.45-250.47-15.51-19.8 139.46-29.11 129.48 134.23-7.17 117.46-192.07 179.16-385.96 183.15z"/>
		</g>
	</g>
	<g id="face">
		<g id="mouth">
			<path id="smiley" fill-rule="evenodd" class="s2" d="m108 396c3.15 11.93 29.74 36.03 65 46 57.5 16.26 119.17-15.43 127.31-25.67"/>
			<path id="cheekL" fill-rule="evenodd" class="s3" d="m117 388c-1.32-0.65-7.67-1.13-13 2-4.31 2.53-6.85 6.59-7 8-0.31 2.97 22.25-8.9 20-10z"/>
			<path id="cheekR" fill-rule="evenodd" class="s3" d="m294.16 405.69c1.46-0.37 6.43 0.69 10.51 4.07 5.05 4.17 6.87 10.67 6.7 12.22-0.28 2.64-20.28-15.53-17.21-16.29z"/>
		</g>
		<g id="eyes">
			<path id="EyeL" fill-rule="evenodd" class="s4" d="m142.6 339.98c-8.29-2.19-11.46-17.35-7.09-33.93 4.37-16.58 14.6-28.21 22.89-26.03 8.29 2.19 11.46 17.35 7.09 33.93-4.37 16.58-14.6 28.21-22.89 26.03z"/>
			<path id="EyeR" fill-rule="evenodd" class="s4" d="m289.6 356.52c-9-0.12-16.07-14.77-15.82-32.77 0.24-18 7.72-32.44 16.72-32.32 9 0.12 16.07 14.77 15.82 32.77-0.25 18-7.72 32.45-16.72 32.32z"/>
		</g>
	</g>
	<g id="gem">
		<g id="Clip-Path" clip-path="url(#cp2)">
			<g>
				<path id="gemFront" fill-rule="evenodd" class="s5" d="m286.67 290.35c-223.66-31.84-296.21-23.19-285.67-110.85 7.98-66.4 9.29-87.61 12.49-88.54 3.14-0.91 8.12 17.89 21.32 21.71 89.34 25.82 420.45 84.78 453.84 58.93 117.14-90.66 122.38-152.87 122.34-83.65-0.04 64.71 8.16 59.46-18.99 91.55-14.55 17.2-42.25 54.59-64.39 79.94-30.89 35.37-72.3 54.92-240.94 30.91z"/>
				<path id="highlight" fill-rule="evenodd" class="s6" d="m486.95 164.69l-0.06 158.19-77.82 1.99 0.05-158.19z"/>
			</g>
		</g>
		<path id="gemTop" fill-rule="evenodd" class="s7" d="m314.5 169c-155.23-17.58-366.28-45.76-284.44-93.13 112.21-64.95 128.16-76.77 174.85-75.46 27.49 0.77 82.06 4 129.14 9.24 61.2 6.81 186.2 19.96 248.51 34.59 21.62 5.07 21.47 7.33 25.78 13.87 4.33 6.59 1.26 14.57 0.17 15.57-29.22 26.9-50.28 49.52-117.65 97.61-31.95 22.8-110.16 5.21-176.36-2.29z"/>
		<g id="Clip-Path" clip-path="url(#cp3)">
			<g>
				<path id="gemRing" fill-rule="evenodd" class="s8" d="m302.84 87.41c-69.3-3.41-124.63-20.29-123.77-37.76 0.86-17.47 57.58-28.84 126.88-25.43 69.31 3.41 124.63 20.29 123.77 37.76-0.86 17.47-57.57 28.84-126.88 25.43z"/>
				<path id="gemRing copy" fill-rule="evenodd" class="s9" d="m316.59 110.07c-45.22-1.9-127.99-22.15-109.17-39.92 7.12-6.71 51.78-20.94 110.36-17.81 52.62 2.81 71.11 12.36 79.73 17.01 66.2 35.76-35.7 42.63-80.92 40.72z"/>
			</g>
		</g>
	</g>
</svg>